# xmcd
#
# Track frame offsets: 
#        150
#        12759
#        35263
#        49976
#        63817
#        90026
#        101611
#        127691
#        144088
#        168392
#        201155
#
# Disc length: 3110 seconds
#
# Revision: 2
# Processed by: cddbd v1.5.2PL0 Copyright (c) Steve Scherf et al.
# Submitted via: ExactAudioCopy v0.99pb5
#
DISCID=7a0c240b
DTITLE=Gary Moore - Close as you get
DYEAR=2007
DGENRE=Rock
TTITLE0=If the devil made whisky
TTITLE1=Trouble at home
TTITLE2=Thirty days
TTITLE3=Hard times
TTITLE4=Have you heard
TTITLE5=Eyesight to the blind
TTITLE6=Evenin'
TTITLE7=Nowhere fast
TTITLE8=Checkin' up on my baby
TTITLE9=I had a dream
TTITLE10=Sundown
EXTD=
EXTT0=
EXTT1=
EXTT2=
EXTT3=
EXTT4=
EXTT5=
EXTT6=
EXTT7=
EXTT8=
EXTT9=
EXTT10=
PLAYORDER=
